<?xml version="1.0" encoding="iso-8859-1"?>
<!-- Generator: Adobe Illustrator 25.2.1, SVG Export Plug-In . SVG Version: 6.00 Build 0)  -->
<svg version="1.1" id="Layer_1" xmlns="http://www.w3.org/2000/svg" xmlns:xlink="http://www.w3.org/1999/xlink" x="0px" y="0px"
	 viewBox="0 0 64 64" style="enable-background:new 0 0 64 64;" xml:space="preserve">
<g>
	<path d="M31.367,58.897C15.585,53.637,10.312,37.62,10.095,36.941L10,36.645V10.981l0.824-0.599C11.126,10.163,18.382,5,32,5v4
		c-9.825,0-15.903,2.902-18,4.104v22.891c0.737,2.025,5.856,14.849,18.633,19.107L31.367,58.897z"/>
</g>
<g>
	<path d="M27,24c-0.015-0.022-1.45-3-5-3c-2.269,0-4.981,0.992-5,1l-1-2c0,0,3.754-2,6.903-2C28.324,18,30,22,30,22L27,24z"/>
</g>
<g>
	<path d="M32,38h-3l-2,2h-4l-6-5l3.857,6.943C21.562,43.212,22.901,44,24.354,44H29l3-3V38z"/>
</g>
<g>
	<polygon points="28,47 32,47 32,62 29,57 29,49 	"/>
</g>
<g>
	<ellipse cx="23.5" cy="29" rx="4.5" ry="2"/>
</g>
<g>
	<path d="M32.633,58.897c15.782-5.261,21.056-21.277,21.272-21.956L54,36.645V10.981l-0.824-0.599C52.874,10.163,45.618,5,32,5v4
		c9.825,0,15.903,2.902,18,4.104v22.891c-0.737,2.025-5.856,14.849-18.633,19.107L32.633,58.897z"/>
</g>
<g>
	<path d="M37,24c0.015-0.022,1.45-3,5-3c2.269,0,4.981,0.992,5,1l1-2c0,0-3.754-2-6.903-2C35.676,18,34,22,34,22L37,24z"/>
</g>
<g>
	<path d="M32,38h3l2,2h4l6-5l-3.857,6.943C42.438,43.212,41.099,44,39.646,44H35l-3-3V38z"/>
</g>
<g>
	<polygon points="36,47 32,47 32,62 35,57 35,49 	"/>
</g>
<g>
	<ellipse cx="40.5" cy="29" rx="4.5" ry="2"/>
</g>
</svg>