<svg version="1.0" xmlns="http://www.w3.org/2000/svg"
 width="48" height="48" viewBox="0 0 48 48"
 preserveAspectRatio="xMidYMid meet" fill="#ffffff">

<g transform="translate(0.000000,48.000000) scale(0.100000,-0.100000)"
fill="#000000" stroke="none">
<path d="M52 408 c-17 -17 -17 -319 0 -336 7 -7 40 -12 76 -12 54 0 63 2 58
16 -3 9 -6 18 -6 20 0 2 -22 4 -50 4 l-50 0 0 140 0 140 160 0 160 0 0 -40 c0
-33 3 -40 20 -40 17 0 20 7 20 48 0 26 -5 53 -12 60 -17 17 -359 17 -376 0z"/>
<path d="M120 320 c0 -13 7 -20 20 -20 13 0 20 7 20 20 0 13 -7 20 -20 20 -13
0 -20 -7 -20 -20z"/>
<path d="M320 320 c0 -13 7 -20 20 -20 13 0 20 7 20 20 0 13 -7 20 -20 20 -13
0 -20 -7 -20 -20z"/>
<path d="M320 260 c0 -12 -9 -24 -22 -29 -46 -18 -73 -59 -73 -112 0 -42 5
-53 33 -81 28 -28 39 -33 82 -33 42 0 54 5 80 30 38 39 48 91 26 135 -11 22
-13 38 -6 50 14 26 -9 44 -31 24 -22 -20 -49 -12 -49 16 0 13 -7 20 -20 20
-13 0 -20 -7 -20 -20z m75 -85 c50 -49 15 -135 -55 -135 -41 0 -80 39 -80 80
0 70 86 105 135 55z"/>
<path d="M330 151 c0 -16 -7 -34 -15 -41 -11 -9 -13 -16 -6 -23 7 -7 17 -5 31
8 24 22 28 85 5 85 -10 0 -15 -10 -15 -29z"/>
<path d="M120 240 c0 -13 7 -20 20 -20 13 0 20 7 20 20 0 13 -7 20 -20 20 -13
0 -20 -7 -20 -20z"/>
<path d="M120 160 c0 -13 7 -20 20 -20 13 0 20 7 20 20 0 13 -7 20 -20 20 -13
0 -20 -7 -20 -20z"/>
</g>
</svg>
